<?xml version="1.0" standalone="no"?>
<!DOCTYPE svg PUBLIC "-//W3C//DTD SVG 20010904//EN"
 "http://www.w3.org/TR/2001/REC-SVG-20010904/DTD/svg10.dtd">
<svg version="1.0" xmlns="http://www.w3.org/2000/svg"
 width="100.000000pt" height="100.000000pt" viewBox="0 0 100.000000 100.000000"
 preserveAspectRatio="xMidYMid meet">
<metadata>
Created by potrace 1.14, written by Peter Selinger 2001-2017
</metadata>
<g transform="translate(0.000000,100.000000) scale(0.100000,-0.100000)"
fill="#000000" stroke="none">
<path d="M362 883 c2 -37 7 -49 21 -51 16 -3 18 3 15 45 -2 37 -7 49 -21 51
-16 3 -18 -3 -15 -45z"/>
<path d="M150 838 c0 -16 51 -68 67 -68 22 0 15 25 -15 53 -30 29 -52 35 -52
15z"/>
<path d="M545 820 c-22 -23 -26 -33 -17 -42 9 -9 19 -5 42 17 16 16 30 35 30
42 0 22 -25 14 -55 -17z"/>
<path d="M300 793 c-65 -28 -110 -97 -110 -170 0 -80 68 -163 147 -179 30 -6
31 -7 27 -50 -8 -72 43 -144 102 -144 9 0 45 -5 79 -11 56 -10 62 -13 71 -41
5 -17 21 -40 36 -51 25 -19 40 -23 96 -26 15 -1 26 -9 29 -21 7 -27 26 -20 33
11 6 22 10 24 57 21 28 -2 54 1 57 7 9 14 -26 31 -63 31 -37 0 -44 10 -36 53
l7 34 54 -5 c44 -4 54 -2 54 11 0 11 -15 17 -49 22 -47 6 -50 9 -53 38 -3 32
-28 51 -28 22 0 -15 -8 -16 -59 -10 -67 8 -115 -10 -126 -46 -7 -20 -11 -21
-82 -15 -132 12 -157 39 -144 153 0 6 17 17 37 23 46 16 99 69 114 116 50 150
-105 290 -250 227z m147 -36 c102 -53 104 -210 3 -262 -48 -25 -88 -27 -134
-6 -60 26 -89 70 -89 136 0 65 28 109 87 136 46 21 86 20 133 -4z m341 -463
c11 -3 12 -17 7 -57 -11 -89 -11 -89 -58 -82 -50 8 -89 33 -94 60 -12 73 53
109 145 79z"/>
<path d="M77 634 c-4 -4 -7 -14 -7 -21 0 -11 12 -13 48 -11 34 2 47 7 47 18 0
10 -12 16 -40 18 -23 2 -44 0 -48 -4z"/>
<path d="M587 633 c-4 -3 -7 -13 -7 -20 0 -23 94 -13 98 10 3 14 -4 17 -41 17
-24 0 -47 -3 -50 -7z"/>
<path d="M177 452 c-29 -30 -35 -52 -14 -52 16 0 67 52 67 68 0 21 -25 13 -53
-16z"/>
<path d="M520 468 c0 -16 51 -68 67 -68 22 0 15 25 -15 53 -30 29 -52 35 -52
15z"/>
</g>
</svg>
