<svg width="18" height="30" xmlns="http://www.w3.org/2000/svg"><path d="M10.62 30h-4.8a1.456 1.456 0 0 1-1.453-1.455V17.709h-2.8a1.456 1.456 0 0 1-1.453-1.456V11.61c0-.802.652-1.455 1.453-1.455h2.8V7.83c0-2.306.723-4.267 2.091-5.673C7.832.746 9.752 0 12.011 0l3.66.006c.8.001 1.451.654 1.451 1.455v4.311c0 .803-.651 1.456-1.453 1.456h-2.464c-.752 0-.943.151-.984.198-.067.076-.148.293-.148.892v1.837h3.411c.257 0 .505.063.72.182.46.258.747.746.747 1.273l-.002 4.644c0 .802-.652 1.454-1.453 1.454h-3.423v10.837c0 .802-.652 1.455-1.453 1.455Zm-4.496-1.759h4.192v-11.32c0-.536.436-.971.971-.971h3.905l.002-4.036h-3.907a.972.972 0 0 1-.97-.972V8.318c0-.688.07-1.469.587-2.056.626-.71 1.613-.792 2.3-.792l2.162-.001V1.764L12.01 1.76c-3.63 0-5.886 2.326-5.886 6.07v3.113a.972.972 0 0 1-.97.972H1.87v4.036h3.283c.535 0 .97.435.97.971v11.32Zm9.544-26.476Z"/></svg>