<svg width="31" height="22" xmlns="http://www.w3.org/2000/svg"><path d="M30.312.382a1.117 1.117 0 0 0-1.216-.318L1.563 9.609c-.55.192-.936.657-1.008 1.214a1.445 1.445 0 0 0 .662 1.402l3.935 2.577c.382.25.872.277 1.28.07l8.537-4.32-6.653 4.767c-.313.224-.5.58-.5.955v4.415c0 .455.261.872.68 1.089.42.216.927.195 1.326-.057l2.99-1.903 2.94 1.923a1.596 1.596 0 0 0 1.187.228 1.566 1.566 0 0 0 1.003-.671L30.399 1.592c.242-.38.207-.865-.087-1.21ZM16.56 20.227l-3.044-1.992a1.276 1.276 0 0 0-1.387-.008L9.576 19.85v-3.328l11.75-8.416c.524-.376.656-1.06.306-1.591a1.263 1.263 0 0 0-1.63-.418L5.888 13.24 2.56 11.06l25.354-8.79L16.56 20.227Z"/></svg>