<svg width="31" height="30" xmlns="http://www.w3.org/2000/svg"><path d="M25.908 4.25A14.23 14.23 0 0 0 15.781.058h-.001c-1.892 0-3.736.366-5.48 1.088A14.251 14.251 0 0 0 5.653 4.25a14.217 14.217 0 0 0-4.195 10.122c0 2.28.55 4.546 1.594 6.565L.646 27.811c-.17.485-.05 1.012.314 1.375a1.316 1.316 0 0 0 1.375.314l6.878-2.406a14.37 14.37 0 0 0 6.568 1.593c3.826 0 7.422-1.49 10.127-4.193a14.217 14.217 0 0 0 4.195-10.122c0-3.823-1.49-7.418-4.195-10.122Zm-1.225 19.02a12.51 12.51 0 0 1-8.902 3.685c-2.057 0-4.1-.508-5.91-1.47a1.334 1.334 0 0 0-1.064-.083L2.56 27.587l2.187-6.244a1.333 1.333 0 0 0-.083-1.064 12.61 12.61 0 0 1-1.472-5.907c0-3.36 1.31-6.521 3.688-8.898A12.512 12.512 0 0 1 15.78 1.79h.001a12.51 12.51 0 0 1 8.902 3.685 12.497 12.497 0 0 1 3.688 8.898c0 3.361-1.31 6.521-3.688 8.898Z"/><path d="M21.104 15.65a1.692 1.692 0 0 0-2.39 0l-.72.72a10.486 10.486 0 0 1-4.213-4.209l.72-.72a1.69 1.69 0 0 0 0-2.389l-1.941-1.94a1.692 1.692 0 0 0-2.39 0L8.617 8.663c-.89.89-.934 2.418-.125 4.305.702 1.639 1.988 3.44 3.62 5.07 1.632 1.632 3.434 2.917 5.073 3.619.897.384 1.713.576 2.418.576.779 0 1.422-.234 1.89-.701l1.553-1.553c.319-.319.495-.743.495-1.194 0-.451-.176-.875-.495-1.194l-1.942-1.941Zm-.837 4.659c-.253.253-1.034.342-2.4-.242-1.441-.618-3.05-1.773-4.53-3.252-1.48-1.479-2.635-3.087-3.253-4.528-.585-1.364-.496-2.145-.242-2.399l1.523-1.523 1.882 1.881-.902.902a1.32 1.32 0 0 0-.245 1.539 12.217 12.217 0 0 0 5.368 5.364 1.322 1.322 0 0 0 1.539-.245l.902-.901 1.882 1.881-1.524 1.523Z"/></svg>